<?xml version="1.0" encoding="UTF-8"?><svg id="Play_Ribbon_Mockup_v1-1_Image" xmlns="http://www.w3.org/2000/svg" xmlns:xlink="http://www.w3.org/1999/xlink" viewBox="0 0 4951.785 613.371"><defs><linearGradient id="linear-gradient" x1="109.182" y1="440.913" x2="109.182" y2="182.418" gradientUnits="userSpaceOnUse"><stop offset="0" stop-color="#131316"/><stop offset=".5" stop-color="#2c2d2f"/><stop offset="1" stop-color="#131316"/></linearGradient><linearGradient id="linear-gradient-2" x1="199.992" y1="612.184" x2="785.574" y2="38.504" gradientUnits="userSpaceOnUse"><stop offset=".029" stop-color="#303c59"/><stop offset=".13" stop-color="#4b5d8b"/><stop offset=".28" stop-color="#485a86"/><stop offset=".44" stop-color="#415179"/><stop offset=".605" stop-color="#364364"/><stop offset=".773" stop-color="#262f46"/><stop offset=".921" stop-color="#151a26"/></linearGradient><linearGradient id="linear-gradient-3" x1="834.595" y1="213.161" x2="2.456" y2="194.715" gradientUnits="userSpaceOnUse"><stop offset="0" stop-color="#3d3159"/><stop offset=".027" stop-color="#443663"/><stop offset=".093" stop-color="#534179"/><stop offset=".157" stop-color="#5b4886"/><stop offset=".215" stop-color="#5f4b8b"/><stop offset=".36" stop-color="#5b4785"/><stop offset=".548" stop-color="#4f3c75"/><stop offset=".759" stop-color="#3d2b5a"/><stop offset=".985" stop-color="#231235"/><stop offset="1" stop-color="#213"/></linearGradient></defs><path d="M217.065,208.446c-145.495-39.005-142.592-26.339-186.974-12.188-11.73,3.74-30.091,26-30.091,26l5.579,175.985s18.511,30.515,61.707,39.952c47.121,10.294,32.487-9.496,151.077-44.984" fill="url(#linear-gradient)"/><path d="M532.091,303.757l285.381,95.928c3.381.866,4.838,1.603,6.393,3.149l-.117,2.235c-.845,2.274-7.354,6.219-10.148,7.184,0,0-563.048,195.55-576.441,199.702-6.307,1.955-21.562,1.88-32.067-.198-10.788-2.134-22.091-14.902-24.403-17.368L5.579,398.242s9.169,25.016,62.011,25.016" fill="url(#linear-gradient-2)"/><path d="M229.672,0c-21.818,1.73-41.389,5.825-56.958,24.542L0,222.257s15.591-25.5,67.591-27c67.972-1.961,678.612,184.117,743.087,203.533,15.663,4.717,2.399,13.645,2.399,13.645,1.19-.9,13.265-1.928,13.778-18.202l5.838-178.472c.006-12.753-2.852-15.253-15.034-19.196" fill="url(#linear-gradient-3)"/><path d="M1312.566,327.537c6.91,8.95,10.37,19.726,10.37,32.33,0,18.71-7.729,33.197-23.18,43.463-15.455,10.27-37.82,15.402-67.101,15.402h-120.17v-213.5h114.07c28.465,0,49.968,5.085,64.508,15.25,14.535,10.17,21.807,23.69,21.807,40.565,0,9.965-2.492,18.91-7.472,26.84-4.985,7.93-12.353,14.335-22.113,19.215,12.605,4.68,22.365,11.489,29.28,20.435ZM1183.246,255.557v31.72h33.551c15.654,0,23.484-5.285,23.484-15.86s-7.83-15.86-23.484-15.86h-33.551ZM1250.346,351.632c0-11.181-7.93-16.775-23.79-16.775h-43.311v33.55h43.311c15.86,0,23.79-5.59,23.79-16.774Z" fill="#fff"/><path d="M1415.349,205.232h71.98v157.685h96.38v55.815h-168.36v-213.5Z" fill="#fff"/><path d="M1819.165,381.522h-81.13l-14.335,37.21h-73.2l93.33-213.5h70.76l93.33,213.5h-74.42l-14.335-37.21ZM1799.34,329.671l-20.74-53.68-20.739,53.68h41.479Z" fill="#fff"/><path d="M2032.971,409.429c-18.1-9.455-32.282-22.67-42.548-39.649-10.27-16.976-15.402-36.243-15.402-57.798s5.133-40.817,15.402-57.797c10.266-16.975,24.448-30.195,42.548-39.65,18.095-9.455,38.43-14.183,61-14.183,20.74,0,39.24,3.66,55.51,10.98,16.266,7.32,29.686,17.895,40.261,31.72l-45.445,40.565c-13.22-16.67-28.775-25.01-46.665-25.01-15.05,0-27.146,4.833-36.295,14.487-9.15,9.66-13.726,22.623-13.726,38.888s4.575,29.232,13.726,38.888c9.149,9.66,21.245,14.487,36.295,14.487,17.89,0,33.445-8.335,46.665-25.01l45.445,40.564c-10.575,13.83-23.995,24.4-40.261,31.721-16.27,7.319-34.77,10.979-55.51,10.979-22.57,0-42.905-4.728-61-14.183Z" fill="#fff"/><path d="M2364.503,347.972l-16.165,17.995v52.765h-70.76v-213.5h70.76v77.47l70.15-77.47h78.385l-85.399,93.94,89.67,119.56h-83.266l-53.375-70.76Z" fill="#fff"/><path d="M2756.424,205.232h15.555v213.5h-15.555v-213.5Z" fill="#fff"/><path d="M3061.728,418.732l-50.936-71.37c-7.524,1.02-14.439,1.525-20.74,1.525h-61v69.845h-15.555v-213.5h76.555c26.841,0,47.886,6.357,63.136,19.062,15.25,12.71,22.875,30.348,22.875,52.917,0,16.88-4.323,31.063-12.963,42.547-8.645,11.49-20.997,19.572-37.058,24.248l53.375,74.725h-17.689ZM2990.052,335.162c22.771,0,40.155-5.032,52.155-15.098,11.995-10.064,17.995-24.347,17.995-42.852s-6-32.788-17.995-42.853c-12-10.065-29.385-15.098-52.155-15.098h-61v115.9h61Z" fill="#fff"/><path d="M3200.194,205.232h15.555v213.5h-15.555v-213.5Z" fill="#fff"/><path d="M3368.706,412.174c-14.135-5.385-25.162-12.353-33.093-20.893l7.016-11.59c7.52,7.93,17.638,14.388,30.348,19.367,12.705,4.985,26.077,7.473,40.107,7.473,20.33,0,35.685-3.86,46.055-11.59,10.37-7.725,15.555-17.79,15.555-30.195,0-9.555-2.745-17.18-8.234-22.875-5.49-5.689-12.306-10.064-20.436-13.114-8.135-3.051-19.115-6.201-32.939-9.455-15.66-3.86-28.213-7.625-37.668-11.285s-17.49-9.303-24.095-16.928c-6.61-7.625-9.913-17.842-9.913-30.652,0-10.37,2.745-19.873,8.235-28.518,5.49-8.64,13.878-15.502,25.162-20.587,11.285-5.08,25.363-7.625,42.243-7.625,11.79,0,23.38,1.73,34.77,5.185,11.386,3.459,21.245,8.135,29.585,14.03l-5.795,12.505c-8.54-5.895-17.947-10.37-28.212-13.42-10.271-3.05-20.388-4.575-30.348-4.575-19.726,0-34.67,3.965-44.835,11.895-10.17,7.93-15.25,18.2-15.25,30.805,0,9.56,2.745,17.185,8.234,22.875,5.49,5.695,12.301,10.065,20.436,13.115,8.13,3.05,19.215,6.305,33.245,9.76,15.654,3.866,28.16,7.625,37.515,11.286,9.351,3.66,17.333,9.201,23.942,16.622,6.605,7.425,9.913,17.438,9.913,30.042,0,10.37-2.798,19.825-8.388,28.365-5.595,8.54-14.183,15.355-25.772,20.436-11.59,5.085-25.825,7.625-42.7,7.625-15.66,0-30.553-2.693-44.683-8.083Z" fill="#fff"/><path d="M3793.108,244.882v56.425h98.82v39.649h-98.82v77.775h-49.409v-213.5h161.345v39.65h-111.936Z" fill="#fff"/><path d="M4005.691,205.232h49.409v213.5h-49.409v-213.5Z" fill="#fff"/><path d="M4172.827,205.232h49.409v173.24h107.056v40.26h-156.465v-213.5Z" fill="#fff"/><path d="M4618.428,418.732l-.305-128.1-62.83,105.53h-22.265l-62.525-102.785v125.355h-46.359v-213.5h40.869l79.91,132.675,78.69-132.675h40.564l.61,213.5h-46.36Z" fill="#fff"/><path d="M4803.713,415.53c-15.76-4.575-28.418-10.522-37.973-17.843l16.775-37.21c9.149,6.71,20.024,12.1,32.635,16.165,12.604,4.069,25.21,6.1,37.819,6.1,14.03,0,24.4-2.082,31.11-6.252,6.71-4.165,10.065-9.708,10.065-16.623,0-5.08-1.982-9.303-5.948-12.657-3.965-3.355-9.05-6.048-15.25-8.083-6.204-2.029-14.592-4.27-25.162-6.709-16.27-3.861-29.585-7.726-39.955-11.59-10.37-3.861-19.268-10.066-26.688-18.605-7.425-8.54-11.133-19.925-11.133-34.16,0-12.4,3.355-23.638,10.065-33.703s16.822-18.042,30.348-23.942c13.52-5.895,30.042-8.845,49.562-8.845,13.62,0,26.939,1.63,39.955,4.88,13.01,3.255,24.399,7.93,34.16,14.03l-15.25,37.515c-19.726-11.18-39.45-16.775-59.17-16.775-13.83,0-24.048,2.24-30.653,6.71-6.609,4.475-9.912,10.37-9.912,17.69s3.812,12.762,11.438,16.317c7.625,3.56,19.263,7.067,34.923,10.522,16.265,3.865,29.585,7.73,39.955,11.59,10.369,3.865,19.262,9.965,26.688,18.3,7.42,8.34,11.132,19.625,11.132,33.854,0,12.2-3.407,23.333-10.218,33.397-6.814,10.065-17.032,18.048-30.652,23.943-13.625,5.895-30.194,8.845-49.715,8.845-16.88,0-33.197-2.288-48.952-6.862Z" fill="#fff"/></svg>